<svg xmlns="http://www.w3.org/2000/svg" xmlns:xlink="http://www.w3.org/1999/xlink" width="500" zoomAndPan="magnify" viewBox="0 0 375 374.999991" height="500" preserveAspectRatio="xMidYMid meet" version="1.0"><defs><g/><clipPath id="e28025a67b"><path d="M 187.300781 141.527344 L 283.734375 141.527344 L 283.734375 203.308594 L 187.300781 203.308594 Z M 187.300781 141.527344 " clip-rule="nonzero"/></clipPath><clipPath id="db38c24082"><path d="M 198.695312 176.296875 L 288.3125 176.296875 L 288.3125 198.449219 L 198.695312 198.449219 Z M 198.695312 176.296875 " clip-rule="nonzero"/></clipPath><clipPath id="b2e723479f"><path d="M 92 139.140625 L 187.472656 139.140625 L 187.472656 203.308594 L 92 203.308594 Z M 92 139.140625 " clip-rule="nonzero"/></clipPath><clipPath id="9f7d726cab"><path d="M 86.585938 173 L 177 173 L 177 198 L 86.585938 198 Z M 86.585938 173 " clip-rule="nonzero"/></clipPath><clipPath id="d2d64d1fb4"><path d="M 221 86.308594 L 229 86.308594 L 229 93 L 221 93 Z M 221 86.308594 " clip-rule="nonzero"/></clipPath></defs><g clip-path="url(#e28025a67b)"><path fill="#f287c7" d="M 254.546875 141.617188 L 283.710938 172.292969 C 218.804688 172.425781 187.308594 203.308594 187.308594 203.308594 C 187.308594 203.308594 203.230469 152.710938 254.546875 141.617188 " fill-opacity="1" fill-rule="nonzero"/></g><g clip-path="url(#db38c24082)"><path fill="#f41b9d" d="M 288.3125 196.25 C 245.585938 185.816406 214.390625 192.761719 198.714844 198.324219 C 211.46875 190.238281 234.933594 178.992188 269.476562 176.433594 L 288.3125 196.25 " fill-opacity="1" fill-rule="nonzero"/></g><g clip-path="url(#b2e723479f)"><path fill="#f287c7" d="M 122.273438 139.285156 L 92.054688 168.914062 C 156.914062 171.335938 187.308594 203.308594 187.308594 203.308594 C 187.308594 203.308594 173.167969 152.183594 122.273438 139.285156 " fill-opacity="1" fill-rule="nonzero"/></g><g clip-path="url(#9f7d726cab)"><path fill="#f41b9d" d="M 86.613281 192.691406 C 129.679688 183.773438 160.609375 191.8125 176.082031 197.925781 C 163.621094 189.394531 140.566406 177.328125 106.136719 173.550781 L 86.613281 192.691406 " fill-opacity="1" fill-rule="nonzero"/></g><path fill="#1b1413" d="M 261.351562 123.796875 L 257.164062 134.769531 C 230.070312 140.261719 212.363281 157.414062 202.269531 170.855469 C 210.804688 155.292969 228.753906 131.53125 261.351562 123.796875 " fill-opacity="1" fill-rule="nonzero"/><path fill="#1b1413" d="M 114.371094 120.78125 L 118.195312 131.957031 C 146.0625 138.046875 163.675781 156.269531 173.496094 170.347656 C 165.371094 154.210938 147.800781 129.25 114.371094 120.78125 " fill-opacity="1" fill-rule="nonzero"/><path fill="#f41b9d" d="M 188.070312 159.863281 C 188.070312 159.863281 172.917969 132.890625 151.941406 126.460938 C 151.941406 126.460938 182.277344 152.660156 187.359375 200.304688 C 194.113281 152.867188 225.347656 127.753906 225.347656 127.753906 C 204.160156 133.441406 188.070312 159.863281 188.070312 159.863281 " fill-opacity="1" fill-rule="nonzero"/><path fill="#f41b9d" d="M 198.375 134.179688 C 198.480469 128.15625 194.15625 123.195312 188.714844 123.097656 C 183.277344 123.003906 178.78125 127.808594 178.675781 133.832031 C 178.570312 139.851562 182.894531 144.8125 188.332031 144.910156 C 193.773438 145.003906 198.269531 140.199219 198.375 134.179688 " fill-opacity="1" fill-rule="nonzero"/><path fill="#f287c7" d="M 201.605469 98.089844 L 183.796875 97.777344 L 183.484375 115.617188 L 201.292969 115.933594 L 201.605469 98.089844 " fill-opacity="1" fill-rule="nonzero"/><path fill="#f287c7" d="M 210.664062 89.324219 L 201.761719 89.167969 L 201.605469 98.089844 L 210.507812 98.246094 L 210.664062 89.324219 " fill-opacity="1" fill-rule="nonzero"/><path fill="#f41b9d" d="M 228.242188 110.808594 L 219.339844 110.652344 L 219.183594 119.570312 L 228.085938 119.730469 L 228.242188 110.808594 " fill-opacity="1" fill-rule="nonzero"/><path fill="#1b1413" d="M 212.488281 107.207031 L 208.210938 107.128906 L 208.136719 111.417969 L 212.414062 111.492188 L 212.488281 107.207031 " fill-opacity="1" fill-rule="nonzero"/><path fill="#1b1413" d="M 254.421875 100.296875 L 246.207031 100.152344 L 246.0625 108.382812 L 254.277344 108.527344 L 254.421875 100.296875 " fill-opacity="1" fill-rule="nonzero"/><path fill="#fecd2f" d="M 238.855469 119.113281 L 234.578125 119.035156 L 234.5 123.324219 L 238.78125 123.398438 L 238.855469 119.113281 " fill-opacity="1" fill-rule="nonzero"/><g clip-path="url(#d2d64d1fb4)"><path fill="#1b1413" d="M 228.324219 86.421875 L 221.90625 86.308594 L 221.792969 92.738281 L 228.210938 92.851562 L 228.324219 86.421875 " fill-opacity="1" fill-rule="nonzero"/></g><path fill="#fecd2f" d="M 235.960938 95.449219 L 229.480469 95.332031 L 229.367188 101.828125 L 235.847656 101.941406 L 235.960938 95.449219 " fill-opacity="1" fill-rule="nonzero"/><g fill="#f41b9d" fill-opacity="1"><g transform="translate(81.637598, 227.491859)"><g><path d="M 10.09375 -5.90625 C 10.5 -7 10.960938 -8.394531 11.484375 -10.09375 C 12.003906 -11.789062 12.507812 -13.445312 13 -15.0625 C 13.601562 -17.09375 14.046875 -18.523438 14.328125 -19.359375 C 14.703125 -20.460938 15.125 -21.546875 15.59375 -22.609375 C 16.070312 -23.679688 16.648438 -24.710938 17.328125 -25.703125 C 17.671875 -26.179688 18.082031 -26.703125 18.5625 -27.265625 C 19.050781 -27.835938 19.585938 -28.332031 20.171875 -28.75 C 20.765625 -29.175781 21.378906 -29.40625 22.015625 -29.4375 C 22.765625 -29.5 23.378906 -29.394531 23.859375 -29.125 C 24.335938 -28.863281 24.726562 -28.394531 25.03125 -27.71875 C 25.757812 -26.101562 26.179688 -24.257812 26.296875 -22.1875 C 26.421875 -20.113281 26.378906 -17.960938 26.171875 -15.734375 C 25.972656 -13.503906 25.722656 -11.375 25.421875 -9.34375 C 25.128906 -7.257812 24.925781 -5.445312 24.8125 -3.90625 C 24.695312 -2.363281 24.820312 -1.273438 25.1875 -0.640625 C 25.550781 -0.015625 26.296875 -0.03125 27.421875 -0.6875 C 28.546875 -1.34375 30.203125 -2.832031 32.390625 -5.15625 C 32.535156 -5.320312 32.675781 -5.476562 32.8125 -5.625 C 33.144531 -6 33.4375 -6.28125 33.6875 -6.46875 C 33.945312 -6.65625 34.21875 -6.710938 34.5 -6.640625 C 34.664062 -6.585938 34.734375 -6.492188 34.703125 -6.359375 C 34.671875 -6.222656 34.609375 -6.082031 34.515625 -5.9375 C 34.484375 -5.863281 34.453125 -5.796875 34.421875 -5.734375 C 34.203125 -5.296875 33.945312 -4.890625 33.65625 -4.515625 C 32.664062 -3.296875 31.648438 -2.097656 30.609375 -0.921875 C 29.898438 -0.171875 29.09375 0.476562 28.1875 1.03125 C 27.382812 1.53125 26.507812 1.8125 25.5625 1.875 C 24.1875 1.945312 23.273438 1.328125 22.828125 0.015625 C 22.617188 -0.585938 22.535156 -1.46875 22.578125 -2.625 C 22.617188 -3.78125 22.710938 -5.046875 22.859375 -6.421875 C 23.003906 -7.804688 23.164062 -9.140625 23.34375 -10.421875 C 23.53125 -11.828125 23.660156 -12.960938 23.734375 -13.828125 C 23.859375 -15.441406 23.941406 -17.078125 23.984375 -18.734375 C 24.035156 -20.398438 24.019531 -21.945312 23.9375 -23.375 C 23.851562 -24.800781 23.671875 -25.945312 23.390625 -26.8125 C 23.109375 -27.6875 22.707031 -28.128906 22.1875 -28.140625 C 21.675781 -28.160156 21.007812 -27.59375 20.1875 -26.4375 C 19.375 -25.28125 18.390625 -23.398438 17.234375 -20.796875 C 15.910156 -17.335938 14.734375 -13.820312 13.703125 -10.25 C 12.296875 -5.300781 10.90625 -0.359375 9.53125 4.578125 C 8.945312 6.609375 8.375 8.632812 7.8125 10.65625 C 7.75 10.84375 7.691406 11.046875 7.640625 11.265625 C 7.546875 11.640625 7.441406 12.015625 7.328125 12.390625 C 7.210938 12.722656 7.035156 12.960938 6.796875 13.109375 C 6.566406 13.253906 6.285156 13.34375 5.953125 13.375 C 5.222656 13.394531 4.835938 13.035156 4.796875 12.296875 C 4.816406 11.429688 4.875 10.566406 4.96875 9.703125 C 5.132812 8.535156 5.335938 7.128906 5.578125 5.484375 C 5.960938 3.035156 6.367188 0.273438 6.796875 -2.796875 C 7.222656 -5.878906 7.597656 -9.066406 7.921875 -12.359375 C 8.253906 -15.648438 8.457031 -18.8125 8.53125 -21.84375 C 8.613281 -24.882812 8.5 -27.566406 8.1875 -29.890625 C 7.875 -32.210938 7.289062 -33.96875 6.4375 -35.15625 C 5.769531 -36.039062 4.90625 -36.34375 3.84375 -36.0625 C 2.375 -35.6875 1.046875 -35.054688 -0.140625 -34.171875 C -3.003906 -32.035156 -5.148438 -29.816406 -6.578125 -27.515625 C -8.015625 -25.210938 -8.851562 -23.003906 -9.09375 -20.890625 C -9.34375 -18.785156 -9.128906 -16.945312 -8.453125 -15.375 C -7.722656 -13.800781 -6.644531 -12.660156 -5.21875 -11.953125 C -3.800781 -11.253906 -2.304688 -11 -0.734375 -11.1875 C -0.316406 -11.382812 0.0976562 -11.363281 0.515625 -11.125 C 0.617188 -11.03125 0.679688 -10.910156 0.703125 -10.765625 C 0.734375 -10.628906 0.707031 -10.503906 0.625 -10.390625 C 0.269531 -9.992188 -0.160156 -9.796875 -0.671875 -9.796875 C -3.390625 -9.734375 -5.535156 -10.148438 -7.109375 -11.046875 C -8.691406 -11.941406 -9.789062 -13.15625 -10.40625 -14.6875 C -11.019531 -16.21875 -11.226562 -17.921875 -11.03125 -19.796875 C -10.832031 -21.679688 -10.296875 -23.59375 -9.421875 -25.53125 C -8.546875 -27.476562 -7.425781 -29.300781 -6.0625 -31 C -4.695312 -32.695312 -3.160156 -34.140625 -1.453125 -35.328125 C -0.703125 -35.859375 0.078125 -36.300781 0.890625 -36.65625 C 1.703125 -37.007812 2.5625 -37.265625 3.46875 -37.421875 C 3.957031 -37.492188 4.445312 -37.53125 4.9375 -37.53125 C 6.664062 -37.53125 7.976562 -36.796875 8.875 -35.328125 C 9.6875 -34.023438 10.25 -32.3125 10.5625 -30.1875 C 10.875 -28.070312 11.019531 -25.8125 11 -23.40625 C 10.976562 -21 10.875 -18.707031 10.6875 -16.53125 C 10.507812 -14.351562 10.34375 -12.570312 10.1875 -11.1875 C 10.09375 -10.34375 10 -9.503906 9.90625 -8.671875 C 9.78125 -7.835938 9.671875 -7 9.578125 -6.15625 C 9.578125 -6.082031 9.570312 -6.007812 9.5625 -5.9375 C 9.519531 -5.632812 9.488281 -5.363281 9.46875 -5.125 C 9.445312 -4.894531 9.453125 -4.742188 9.484375 -4.671875 C 9.515625 -4.609375 9.578125 -4.664062 9.671875 -4.84375 C 9.765625 -5.03125 9.90625 -5.382812 10.09375 -5.90625 Z M 10.09375 -5.90625 "/></g></g></g><g fill="#f41b9d" fill-opacity="1"><g transform="translate(115.086708, 227.491859)"><g><path d="M 14.1875 -6.703125 C 14.5 -6.753906 14.691406 -6.742188 14.765625 -6.671875 C 14.847656 -6.597656 14.867188 -6.472656 14.828125 -6.296875 C 14.804688 -6.003906 14.679688 -5.742188 14.453125 -5.515625 C 14.222656 -5.285156 13.929688 -5.085938 13.578125 -4.921875 C 12.734375 -4.523438 11.90625 -4.296875 11.09375 -4.234375 C 10.289062 -4.171875 9.445312 -4.238281 8.5625 -4.4375 C 8.175781 -4.550781 7.84375 -4.554688 7.5625 -4.453125 C 7.289062 -4.347656 7.015625 -4.035156 6.734375 -3.515625 C 6.035156 -2.160156 4.925781 -1.398438 3.40625 -1.234375 C 2.257812 -1.117188 1.410156 -1.332031 0.859375 -1.875 C 0.316406 -2.414062 -0.0234375 -3.109375 -0.171875 -3.953125 C -0.335938 -4.828125 -0.296875 -5.644531 -0.046875 -6.40625 C 0.191406 -7.164062 0.59375 -7.875 1.15625 -8.53125 C 1.59375 -9 2.128906 -9.195312 2.765625 -9.125 C 3.066406 -9.125 3.300781 -9.007812 3.46875 -8.78125 C 3.5625 -8.632812 3.578125 -8.503906 3.515625 -8.390625 C 3.460938 -8.273438 3.378906 -8.171875 3.265625 -8.078125 C 2.347656 -7.117188 1.914062 -5.976562 1.96875 -4.65625 C 1.988281 -4.039062 2.171875 -3.476562 2.515625 -2.96875 C 2.804688 -2.539062 3.179688 -2.476562 3.640625 -2.78125 C 4.066406 -3.125 4.441406 -3.59375 4.765625 -4.1875 C 5.097656 -4.78125 5.285156 -5.394531 5.328125 -6.03125 C 5.378906 -6.664062 5.207031 -7.226562 4.8125 -7.71875 C 4.613281 -7.90625 4.421875 -8.035156 4.234375 -8.109375 C 4.140625 -8.160156 4.050781 -8.207031 3.96875 -8.25 C 3.894531 -8.300781 3.859375 -8.363281 3.859375 -8.4375 C 3.835938 -8.875 3.992188 -9.191406 4.328125 -9.390625 C 4.671875 -9.585938 5.085938 -9.6875 5.578125 -9.6875 C 6.066406 -9.6875 6.519531 -9.585938 6.9375 -9.390625 C 7.363281 -9.191406 7.644531 -8.90625 7.78125 -8.53125 C 7.914062 -8.039062 7.953125 -7.550781 7.890625 -7.0625 C 7.867188 -6.644531 8.039062 -6.328125 8.40625 -6.109375 C 9.207031 -5.546875 10.085938 -5.347656 11.046875 -5.515625 C 11.441406 -5.585938 11.800781 -5.6875 12.125 -5.8125 C 12.457031 -5.945312 12.773438 -6.09375 13.078125 -6.25 C 13.472656 -6.457031 13.84375 -6.609375 14.1875 -6.703125 Z M 14.1875 -6.703125 "/></g></g></g><g fill="#f41b9d" fill-opacity="1"><g transform="translate(128.584167, 227.491859)"><g><path d="M 11.296875 -6.421875 C 11.617188 -6.359375 11.796875 -6.179688 11.828125 -5.890625 C 11.867188 -5.597656 11.722656 -5.304688 11.390625 -5.015625 C 11.066406 -4.722656 10.753906 -4.457031 10.453125 -4.21875 C 9.703125 -3.601562 8.894531 -2.941406 8.03125 -2.234375 C 7.351562 -1.691406 6.734375 -1.09375 6.171875 -0.4375 C 5.753906 0.0078125 5.441406 0.515625 5.234375 1.078125 C 5.015625 1.804688 4.640625 2.460938 4.109375 3.046875 C 3.804688 3.390625 3.460938 3.597656 3.078125 3.671875 C 2.703125 3.753906 2.304688 3.734375 1.890625 3.609375 C 1.679688 3.554688 1.523438 3.445312 1.421875 3.28125 C 1.316406 3.125 1.296875 2.941406 1.359375 2.734375 C 1.421875 2.421875 1.539062 2.125 1.71875 1.84375 C 1.96875 1.488281 2.234375 1.140625 2.515625 0.796875 C 2.523438 0.765625 2.550781 0.726562 2.59375 0.6875 C 3.570312 -0.53125 3.628906 -1.78125 2.765625 -3.0625 C 2.554688 -3.34375 2.320312 -3.613281 2.0625 -3.875 C 1.988281 -3.96875 1.90625 -4.0625 1.8125 -4.15625 C 1.65625 -4.34375 1.488281 -4.523438 1.3125 -4.703125 C 1 -5.035156 0.691406 -5.390625 0.390625 -5.765625 C -0.453125 -6.953125 -0.394531 -8.085938 0.5625 -9.171875 C 1.394531 -10.148438 2.425781 -10.828125 3.65625 -11.203125 C 4.425781 -11.429688 5.171875 -11.363281 5.890625 -11 C 6.585938 -10.625 6.910156 -10.046875 6.859375 -9.265625 C 6.773438 -8.734375 6.507812 -8.421875 6.0625 -8.328125 C 5.476562 -8.210938 5.0625 -8.390625 4.8125 -8.859375 C 4.738281 -9.046875 4.6875 -9.207031 4.65625 -9.34375 C 4.613281 -9.488281 4.5625 -9.597656 4.5 -9.671875 C 4.445312 -9.753906 4.351562 -9.78125 4.21875 -9.75 C 4.09375 -9.71875 3.890625 -9.617188 3.609375 -9.453125 C 3.171875 -9.191406 2.796875 -8.851562 2.484375 -8.4375 C 1.972656 -7.820312 1.941406 -7.164062 2.390625 -6.46875 C 2.546875 -6.25 2.71875 -6.046875 2.90625 -5.859375 C 3.113281 -5.628906 3.3125 -5.398438 3.5 -5.171875 C 3.875 -4.796875 4.226562 -4.410156 4.5625 -4.015625 C 4.90625 -3.628906 5.195312 -3.207031 5.4375 -2.75 C 5.625 -2.789062 5.953125 -2.96875 6.421875 -3.28125 C 6.898438 -3.601562 7.410156 -3.972656 7.953125 -4.390625 C 8.503906 -4.816406 9.007812 -5.203125 9.46875 -5.546875 C 9.84375 -5.847656 10.109375 -6.050781 10.265625 -6.15625 C 10.390625 -6.25 10.546875 -6.316406 10.734375 -6.359375 C 10.921875 -6.410156 11.109375 -6.429688 11.296875 -6.421875 Z M 11.296875 -6.421875 "/></g></g></g><g fill="#f41b9d" fill-opacity="1"><g transform="translate(138.688052, 227.491859)"><g><path d="M 11.296875 -6.421875 C 11.617188 -6.359375 11.796875 -6.179688 11.828125 -5.890625 C 11.867188 -5.597656 11.722656 -5.304688 11.390625 -5.015625 C 11.066406 -4.722656 10.753906 -4.457031 10.453125 -4.21875 C 9.703125 -3.601562 8.894531 -2.941406 8.03125 -2.234375 C 7.351562 -1.691406 6.734375 -1.09375 6.171875 -0.4375 C 5.753906 0.0078125 5.441406 0.515625 5.234375 1.078125 C 5.015625 1.804688 4.640625 2.460938 4.109375 3.046875 C 3.804688 3.390625 3.460938 3.597656 3.078125 3.671875 C 2.703125 3.753906 2.304688 3.734375 1.890625 3.609375 C 1.679688 3.554688 1.523438 3.445312 1.421875 3.28125 C 1.316406 3.125 1.296875 2.941406 1.359375 2.734375 C 1.421875 2.421875 1.539062 2.125 1.71875 1.84375 C 1.96875 1.488281 2.234375 1.140625 2.515625 0.796875 C 2.523438 0.765625 2.550781 0.726562 2.59375 0.6875 C 3.570312 -0.53125 3.628906 -1.78125 2.765625 -3.0625 C 2.554688 -3.34375 2.320312 -3.613281 2.0625 -3.875 C 1.988281 -3.96875 1.90625 -4.0625 1.8125 -4.15625 C 1.65625 -4.34375 1.488281 -4.523438 1.3125 -4.703125 C 1 -5.035156 0.691406 -5.390625 0.390625 -5.765625 C -0.453125 -6.953125 -0.394531 -8.085938 0.5625 -9.171875 C 1.394531 -10.148438 2.425781 -10.828125 3.65625 -11.203125 C 4.425781 -11.429688 5.171875 -11.363281 5.890625 -11 C 6.585938 -10.625 6.910156 -10.046875 6.859375 -9.265625 C 6.773438 -8.734375 6.507812 -8.421875 6.0625 -8.328125 C 5.476562 -8.210938 5.0625 -8.390625 4.8125 -8.859375 C 4.738281 -9.046875 4.6875 -9.207031 4.65625 -9.34375 C 4.613281 -9.488281 4.5625 -9.597656 4.5 -9.671875 C 4.445312 -9.753906 4.351562 -9.78125 4.21875 -9.75 C 4.09375 -9.71875 3.890625 -9.617188 3.609375 -9.453125 C 3.171875 -9.191406 2.796875 -8.851562 2.484375 -8.4375 C 1.972656 -7.820312 1.941406 -7.164062 2.390625 -6.46875 C 2.546875 -6.25 2.71875 -6.046875 2.90625 -5.859375 C 3.113281 -5.628906 3.3125 -5.398438 3.5 -5.171875 C 3.875 -4.796875 4.226562 -4.410156 4.5625 -4.015625 C 4.90625 -3.628906 5.195312 -3.207031 5.4375 -2.75 C 5.625 -2.789062 5.953125 -2.96875 6.421875 -3.28125 C 6.898438 -3.601562 7.410156 -3.972656 7.953125 -4.390625 C 8.503906 -4.816406 9.007812 -5.203125 9.46875 -5.546875 C 9.84375 -5.847656 10.109375 -6.050781 10.265625 -6.15625 C 10.390625 -6.25 10.546875 -6.316406 10.734375 -6.359375 C 10.921875 -6.410156 11.109375 -6.429688 11.296875 -6.421875 Z M 11.296875 -6.421875 "/></g></g></g><g fill="#f41b9d" fill-opacity="1"><g transform="translate(148.791937, 227.491859)"><g><path d="M 11.734375 -6.4375 C 11.828125 -6.425781 11.890625 -6.398438 11.921875 -6.359375 C 11.960938 -6.316406 12.003906 -6.242188 12.046875 -6.140625 C 12.078125 -6.023438 12.035156 -5.890625 11.921875 -5.734375 C 11.816406 -5.585938 11.71875 -5.46875 11.625 -5.375 C 10.914062 -4.707031 10.09375 -4.3125 9.15625 -4.1875 C 8.625 -4.113281 8.085938 -4.09375 7.546875 -4.125 C 7.003906 -4.164062 6.472656 -4.296875 5.953125 -4.515625 C 5.578125 -4.703125 5.226562 -4.648438 4.90625 -4.359375 C 4.226562 -3.742188 3.523438 -3.15625 2.796875 -2.59375 C 2.421875 -2.3125 2.023438 -2.070312 1.609375 -1.875 C 1.191406 -1.6875 0.738281 -1.582031 0.25 -1.5625 C -1.175781 -1.582031 -1.738281 -2.28125 -1.4375 -3.65625 C -1.414062 -3.707031 -1.394531 -3.753906 -1.375 -3.796875 C -0.957031 -4.898438 -0.414062 -5.898438 0.25 -6.796875 C 0.925781 -7.691406 1.78125 -8.4375 2.8125 -9.03125 C 3.5 -9.4375 4.234375 -9.585938 5.015625 -9.484375 C 5.222656 -9.441406 5.421875 -9.367188 5.609375 -9.265625 C 5.835938 -9.148438 5.929688 -8.96875 5.890625 -8.71875 C 5.867188 -8.644531 5.832031 -8.578125 5.78125 -8.515625 C 5.726562 -8.460938 5.671875 -8.410156 5.609375 -8.359375 C 5.578125 -8.316406 5.53125 -8.285156 5.46875 -8.265625 C 5.414062 -8.253906 5.359375 -8.25 5.296875 -8.25 C 4.734375 -8.226562 4.25 -8.0625 3.84375 -7.75 C 3.4375 -7.4375 3.066406 -7.085938 2.734375 -6.703125 C 2.359375 -6.285156 2.007812 -5.820312 1.6875 -5.3125 C 1.375 -4.8125 1.113281 -4.210938 0.90625 -3.515625 C 1.65625 -3.941406 2.242188 -4.367188 2.671875 -4.796875 C 2.765625 -4.890625 2.859375 -4.976562 2.953125 -5.0625 C 3.035156 -5.132812 3.113281 -5.203125 3.1875 -5.265625 C 3.5625 -5.617188 3.957031 -5.925781 4.375 -6.1875 C 4.84375 -6.445312 5.304688 -6.578125 5.765625 -6.578125 C 6.222656 -6.578125 6.671875 -6.390625 7.109375 -6.015625 C 7.703125 -5.484375 8.28125 -5.273438 8.84375 -5.390625 C 9.414062 -5.515625 9.941406 -5.71875 10.421875 -6 C 10.921875 -6.289062 11.359375 -6.4375 11.734375 -6.4375 Z M 11.734375 -6.4375 "/></g></g></g><g fill="#f41b9d" fill-opacity="1"><g transform="translate(159.638566, 227.491859)"><g><path d="M 11.296875 -6.421875 C 11.617188 -6.359375 11.796875 -6.179688 11.828125 -5.890625 C 11.867188 -5.597656 11.722656 -5.304688 11.390625 -5.015625 C 11.066406 -4.722656 10.753906 -4.457031 10.453125 -4.21875 C 9.703125 -3.601562 8.894531 -2.941406 8.03125 -2.234375 C 7.351562 -1.691406 6.734375 -1.09375 6.171875 -0.4375 C 5.753906 0.0078125 5.441406 0.515625 5.234375 1.078125 C 5.015625 1.804688 4.640625 2.460938 4.109375 3.046875 C 3.804688 3.390625 3.460938 3.597656 3.078125 3.671875 C 2.703125 3.753906 2.304688 3.734375 1.890625 3.609375 C 1.679688 3.554688 1.523438 3.445312 1.421875 3.28125 C 1.316406 3.125 1.296875 2.941406 1.359375 2.734375 C 1.421875 2.421875 1.539062 2.125 1.71875 1.84375 C 1.96875 1.488281 2.234375 1.140625 2.515625 0.796875 C 2.523438 0.765625 2.550781 0.726562 2.59375 0.6875 C 3.570312 -0.53125 3.628906 -1.78125 2.765625 -3.0625 C 2.554688 -3.34375 2.320312 -3.613281 2.0625 -3.875 C 1.988281 -3.96875 1.90625 -4.0625 1.8125 -4.15625 C 1.65625 -4.34375 1.488281 -4.523438 1.3125 -4.703125 C 1 -5.035156 0.691406 -5.390625 0.390625 -5.765625 C -0.453125 -6.953125 -0.394531 -8.085938 0.5625 -9.171875 C 1.394531 -10.148438 2.425781 -10.828125 3.65625 -11.203125 C 4.425781 -11.429688 5.171875 -11.363281 5.890625 -11 C 6.585938 -10.625 6.910156 -10.046875 6.859375 -9.265625 C 6.773438 -8.734375 6.507812 -8.421875 6.0625 -8.328125 C 5.476562 -8.210938 5.0625 -8.390625 4.8125 -8.859375 C 4.738281 -9.046875 4.6875 -9.207031 4.65625 -9.34375 C 4.613281 -9.488281 4.5625 -9.597656 4.5 -9.671875 C 4.445312 -9.753906 4.351562 -9.78125 4.21875 -9.75 C 4.09375 -9.71875 3.890625 -9.617188 3.609375 -9.453125 C 3.171875 -9.191406 2.796875 -8.851562 2.484375 -8.4375 C 1.972656 -7.820312 1.941406 -7.164062 2.390625 -6.46875 C 2.546875 -6.25 2.71875 -6.046875 2.90625 -5.859375 C 3.113281 -5.628906 3.3125 -5.398438 3.5 -5.171875 C 3.875 -4.796875 4.226562 -4.410156 4.5625 -4.015625 C 4.90625 -3.628906 5.195312 -3.207031 5.4375 -2.75 C 5.625 -2.789062 5.953125 -2.96875 6.421875 -3.28125 C 6.898438 -3.601562 7.410156 -3.972656 7.953125 -4.390625 C 8.503906 -4.816406 9.007812 -5.203125 9.46875 -5.546875 C 9.84375 -5.847656 10.109375 -6.050781 10.265625 -6.15625 C 10.390625 -6.25 10.546875 -6.316406 10.734375 -6.359375 C 10.921875 -6.410156 11.109375 -6.429688 11.296875 -6.421875 Z M 11.296875 -6.421875 "/></g></g></g><g fill="#f41b9d" fill-opacity="1"><g transform="translate(169.742451, 227.491859)"><g/></g></g><g fill="#f41b9d" fill-opacity="1"><g transform="translate(179.871948, 227.491859)"><g><path d="M 55 -6.578125 C 55.15625 -6.566406 55.296875 -6.515625 55.421875 -6.421875 C 55.546875 -6.328125 55.597656 -6.140625 55.578125 -5.859375 C 55.554688 -5.578125 55.40625 -5.171875 55.125 -4.640625 C 55.007812 -4.359375 54.875 -4.082031 54.71875 -3.8125 C 54.71875 -3.800781 54.710938 -3.785156 54.703125 -3.765625 C 52.765625 -0.0976562 50.960938 3.628906 49.296875 7.421875 C 48.453125 9.316406 47.425781 11.113281 46.21875 12.8125 C 45.851562 13.300781 45.476562 13.769531 45.09375 14.21875 C 44.695312 14.625 44.226562 14.882812 43.6875 15 C 42.269531 15.351562 41.359375 14.828125 40.953125 13.421875 C 40.816406 12.890625 40.738281 12.359375 40.71875 11.828125 C 40.65625 10.222656 40.710938 8.632812 40.890625 7.0625 C 41.335938 2.132812 41.921875 -2.789062 42.640625 -7.71875 C 42.660156 -7.75 42.671875 -7.785156 42.671875 -7.828125 C 42.796875 -8.421875 42.8125 -9.007812 42.71875 -9.59375 C 42.570312 -9.65625 42.453125 -9.664062 42.359375 -9.625 C 42.265625 -9.582031 42.171875 -9.523438 42.078125 -9.453125 C 41.398438 -8.890625 40.710938 -8.328125 40.015625 -7.765625 C 38.242188 -6.335938 36.46875 -4.921875 34.6875 -3.515625 C 34.101562 -3.054688 33.796875 -2.453125 33.765625 -1.703125 C 33.578125 0.128906 33.3125 2.160156 32.96875 4.390625 C 32.625 6.617188 32.132812 8.796875 31.5 10.921875 C 30.863281 13.046875 30 14.875 28.90625 16.40625 C 28.34375 17.21875 27.648438 17.90625 26.828125 18.46875 C 26.316406 18.800781 25.773438 19.046875 25.203125 19.203125 C 24.023438 19.460938 23.019531 19.335938 22.1875 18.828125 C 21.351562 18.328125 20.785156 17.492188 20.484375 16.328125 C 20.109375 14.640625 20.160156 12.953125 20.640625 11.265625 C 21.117188 9.585938 21.863281 7.957031 22.875 6.375 C 23.894531 4.800781 25.019531 3.335938 26.25 1.984375 C 27.476562 0.628906 28.671875 -0.550781 29.828125 -1.5625 C 29.984375 -1.71875 30.15625 -1.875 30.34375 -2.03125 C 30.5625 -2.1875 30.765625 -2.359375 30.953125 -2.546875 C 31.148438 -2.734375 31.304688 -2.941406 31.421875 -3.171875 C 31.546875 -3.453125 31.628906 -3.757812 31.671875 -4.09375 C 31.710938 -4.4375 31.738281 -4.78125 31.75 -5.125 C 31.75 -5.269531 31.765625 -5.421875 31.796875 -5.578125 C 31.847656 -6.703125 31.898438 -8.203125 31.953125 -10.078125 C 32.003906 -11.960938 31.976562 -14.019531 31.875 -16.25 C 31.78125 -18.476562 31.539062 -20.6875 31.15625 -22.875 C 30.769531 -25.070312 30.164062 -27.050781 29.34375 -28.8125 C 28.53125 -30.582031 27.441406 -31.929688 26.078125 -32.859375 C 24.722656 -33.785156 23.007812 -34.101562 20.9375 -33.8125 C 15.394531 -32.957031 10.578125 -30.597656 6.484375 -26.734375 C 4.941406 -25.304688 3.757812 -23.625 2.9375 -21.6875 C 2.5625 -20.8125 2.3125 -19.921875 2.1875 -19.015625 C 2.0625 -18.117188 2.171875 -17.207031 2.515625 -16.28125 C 2.992188 -14.945312 3.65625 -13.765625 4.5 -12.734375 C 5.351562 -11.710938 6.4375 -10.890625 7.75 -10.265625 C 7.875 -10.222656 8.015625 -10.15625 8.171875 -10.0625 C 8.265625 -9.976562 8.304688 -9.859375 8.296875 -9.703125 C 8.285156 -9.554688 8.210938 -9.445312 8.078125 -9.375 C 8.066406 -9.351562 8.050781 -9.332031 8.03125 -9.3125 C 7.914062 -9.257812 7.789062 -9.210938 7.65625 -9.171875 C 7.039062 -9.046875 6.460938 -9.140625 5.921875 -9.453125 C 4.585938 -10.265625 3.445312 -11.222656 2.5 -12.328125 C 1.550781 -13.441406 0.828125 -14.75 0.328125 -16.25 C 0.109375 -16.976562 0.015625 -17.722656 0.046875 -18.484375 C 0.078125 -19.253906 0.191406 -20.015625 0.390625 -20.765625 C 0.710938 -21.867188 1.164062 -22.890625 1.75 -23.828125 C 2.332031 -24.765625 3 -25.65625 3.75 -26.5 C 5.113281 -28.0625 6.679688 -29.40625 8.453125 -30.53125 C 10.015625 -31.507812 11.625 -32.359375 13.28125 -33.078125 C 14.945312 -33.804688 16.679688 -34.367188 18.484375 -34.765625 C 20.359375 -35.203125 22.257812 -35.285156 24.1875 -35.015625 C 26.25 -34.679688 27.925781 -33.847656 29.21875 -32.515625 C 30.519531 -31.191406 31.523438 -29.554688 32.234375 -27.609375 C 32.953125 -25.671875 33.457031 -23.613281 33.75 -21.4375 C 34.039062 -19.257812 34.203125 -17.140625 34.234375 -15.078125 C 34.273438 -13.015625 34.269531 -11.203125 34.21875 -9.640625 C 34.21875 -9.203125 34.207031 -8.765625 34.1875 -8.328125 C 34.164062 -7.617188 34.144531 -6.90625 34.125 -6.1875 C 34.125 -6.164062 34.125 -6.148438 34.125 -6.140625 C 34.125 -6.046875 34.132812 -5.953125 34.15625 -5.859375 C 34.175781 -5.765625 34.25 -5.707031 34.375 -5.6875 C 34.457031 -5.664062 34.535156 -5.671875 34.609375 -5.703125 C 34.679688 -5.742188 34.742188 -5.796875 34.796875 -5.859375 C 36.804688 -7.429688 38.8125 -9.023438 40.8125 -10.640625 C 41.1875 -10.941406 41.550781 -11.25 41.90625 -11.5625 C 42.113281 -11.75 42.328125 -11.929688 42.546875 -12.109375 C 43.035156 -12.492188 43.3125 -13.007812 43.375 -13.65625 C 43.675781 -17.300781 44.015625 -20.9375 44.390625 -24.5625 C 44.679688 -27.5 45 -30.421875 45.34375 -33.328125 C 45.425781 -33.929688 45.566406 -34.515625 45.765625 -35.078125 C 46.179688 -36.109375 46.84375 -36.734375 47.75 -36.953125 C 48.664062 -37.171875 49.554688 -36.925781 50.421875 -36.21875 C 50.773438 -35.882812 51.082031 -35.507812 51.34375 -35.09375 C 52.40625 -33.40625 53.03125 -31.566406 53.21875 -29.578125 C 53.507812 -26.285156 52.894531 -23.175781 51.375 -20.25 C 50.1875 -17.957031 48.710938 -15.875 46.953125 -14 C 46.929688 -13.976562 46.921875 -13.96875 46.921875 -13.96875 C 46.566406 -13.570312 46.203125 -13.1875 45.828125 -12.8125 C 45.503906 -12.488281 45.320312 -12.101562 45.28125 -11.65625 C 45.070312 -10 44.867188 -8.351562 44.671875 -6.71875 C 44.304688 -4.09375 43.976562 -1.460938 43.6875 1.171875 C 43.476562 3.046875 43.289062 4.921875 43.125 6.796875 C 43.039062 7.679688 42.960938 8.566406 42.890625 9.453125 C 42.742188 10.660156 42.800781 11.851562 43.0625 13.03125 C 43.101562 13.132812 43.175781 13.195312 43.28125 13.21875 C 43.394531 13.25 43.488281 13.222656 43.5625 13.140625 C 43.789062 12.890625 44 12.625 44.1875 12.34375 C 45.289062 10.8125 46.238281 9.171875 47.03125 7.421875 C 47.957031 5.441406 48.867188 3.457031 49.765625 1.46875 C 50.535156 -0.101562 51.375 -1.648438 52.28125 -3.171875 C 52.5625 -3.679688 52.847656 -4.191406 53.140625 -4.703125 C 53.253906 -4.910156 53.410156 -5.164062 53.609375 -5.46875 C 53.816406 -5.78125 54.039062 -6.046875 54.28125 -6.265625 C 54.519531 -6.492188 54.757812 -6.597656 55 -6.578125 Z M 45.890625 -17.296875 C 45.890625 -17.234375 45.875 -17.164062 45.84375 -17.09375 C 45.832031 -16.945312 45.820312 -16.773438 45.8125 -16.578125 C 45.800781 -16.378906 45.800781 -16.207031 45.8125 -16.0625 C 45.832031 -15.925781 45.890625 -15.859375 45.984375 -15.859375 C 46.078125 -15.859375 46.21875 -15.96875 46.40625 -16.1875 C 47.914062 -18.019531 49.117188 -20.023438 50.015625 -22.203125 C 50.566406 -23.566406 50.925781 -24.945312 51.09375 -26.34375 C 51.257812 -27.75 51.203125 -29.1875 50.921875 -30.65625 C 50.617188 -32.238281 50.019531 -33.6875 49.125 -35 C 49.125 -35 49.125 -35.003906 49.125 -35.015625 C 49.03125 -35.148438 48.925781 -35.265625 48.8125 -35.359375 C 48.695312 -35.460938 48.546875 -35.507812 48.359375 -35.5 C 48.242188 -35.457031 48.144531 -35.378906 48.0625 -35.265625 C 47.988281 -35.148438 47.9375 -35.03125 47.90625 -34.90625 C 47.90625 -34.90625 47.90625 -34.894531 47.90625 -34.875 C 47.59375 -33.9375 47.394531 -32.976562 47.3125 -32 C 47.21875 -31.15625 47.132812 -30.320312 47.0625 -29.5 C 46.84375 -27.46875 46.625 -25.4375 46.40625 -23.40625 C 46.25 -21.675781 46.101562 -19.9375 45.96875 -18.1875 C 45.925781 -17.882812 45.898438 -17.585938 45.890625 -17.296875 Z M 31.234375 0.484375 C 31.234375 0.453125 31.234375 0.425781 31.234375 0.40625 C 31.242188 0.3125 31.242188 0.222656 31.234375 0.140625 C 31.234375 0.0546875 31.1875 -0.015625 31.09375 -0.078125 C 30.96875 -0.109375 30.863281 -0.0976562 30.78125 -0.046875 C 30.707031 0.00390625 30.640625 0.0625 30.578125 0.125 C 30.554688 0.144531 30.539062 0.160156 30.53125 0.171875 C 29.84375 0.835938 29.050781 1.675781 28.15625 2.6875 C 27.269531 3.707031 26.394531 4.832031 25.53125 6.0625 C 24.664062 7.289062 23.929688 8.5625 23.328125 9.875 C 22.734375 11.1875 22.382812 12.472656 22.28125 13.734375 C 22.1875 14.992188 22.460938 16.160156 23.109375 17.234375 C 23.578125 18.054688 24.203125 18.210938 24.984375 17.703125 C 26.097656 16.992188 27.019531 15.921875 27.75 14.484375 C 28.488281 13.054688 29.085938 11.472656 29.546875 9.734375 C 30.015625 8.003906 30.378906 6.3125 30.640625 4.65625 C 30.898438 3 31.097656 1.609375 31.234375 0.484375 Z M 31.234375 0.484375 "/></g></g></g><g fill="#f41b9d" fill-opacity="1"><g transform="translate(233.823364, 227.491859)"><g><path d="M 9.328125 -6.421875 C 9.429688 -6.359375 9.476562 -6.253906 9.46875 -6.109375 C 9.46875 -5.972656 9.425781 -5.847656 9.34375 -5.734375 C 8.769531 -4.867188 8.148438 -4.101562 7.484375 -3.4375 C 6.816406 -2.78125 6.082031 -2.285156 5.28125 -1.953125 C 4.488281 -1.617188 3.570312 -1.523438 2.53125 -1.671875 C 1.84375 -1.785156 1.320312 -2.019531 0.96875 -2.375 C 0.625 -2.738281 0.363281 -3.25 0.1875 -3.90625 C -0.09375 -4.9375 -0.15625 -6 0 -7.09375 C 0.125 -7.726562 0.515625 -8.054688 1.171875 -8.078125 C 1.765625 -8.078125 2.085938 -7.8125 2.140625 -7.28125 C 2.160156 -6.851562 2.160156 -6.425781 2.140625 -6 C 2.140625 -5.9375 2.140625 -5.878906 2.140625 -5.828125 C 2.109375 -4.660156 2.296875 -3.859375 2.703125 -3.421875 C 3.117188 -2.992188 3.660156 -2.878906 4.328125 -3.078125 C 4.992188 -3.285156 5.703125 -3.757812 6.453125 -4.5 C 6.546875 -4.59375 6.660156 -4.71875 6.796875 -4.875 C 6.941406 -5.039062 7.101562 -5.207031 7.28125 -5.375 C 7.519531 -5.613281 7.710938 -5.820312 7.859375 -6 C 8.328125 -6.46875 8.816406 -6.609375 9.328125 -6.421875 Z M 1.015625 -9.96875 C 0.492188 -10 0.191406 -10.28125 0.109375 -10.8125 C 0.0546875 -11.21875 0.125 -11.609375 0.3125 -11.984375 C 0.476562 -12.316406 0.753906 -12.539062 1.140625 -12.65625 C 1.523438 -12.769531 1.890625 -12.734375 2.234375 -12.546875 C 2.359375 -12.484375 2.445312 -12.390625 2.5 -12.265625 C 2.5625 -12.140625 2.582031 -12.039062 2.5625 -11.96875 C 2.539062 -10.613281 2.023438 -9.945312 1.015625 -9.96875 Z M 1.015625 -9.96875 "/></g></g></g><g fill="#f41b9d" fill-opacity="1"><g transform="translate(241.673404, 227.491859)"><g><path d="M 11.296875 -6.421875 C 11.617188 -6.359375 11.796875 -6.179688 11.828125 -5.890625 C 11.867188 -5.597656 11.722656 -5.304688 11.390625 -5.015625 C 11.066406 -4.722656 10.753906 -4.457031 10.453125 -4.21875 C 9.703125 -3.601562 8.894531 -2.941406 8.03125 -2.234375 C 7.351562 -1.691406 6.734375 -1.09375 6.171875 -0.4375 C 5.753906 0.0078125 5.441406 0.515625 5.234375 1.078125 C 5.015625 1.804688 4.640625 2.460938 4.109375 3.046875 C 3.804688 3.390625 3.460938 3.597656 3.078125 3.671875 C 2.703125 3.753906 2.304688 3.734375 1.890625 3.609375 C 1.679688 3.554688 1.523438 3.445312 1.421875 3.28125 C 1.316406 3.125 1.296875 2.941406 1.359375 2.734375 C 1.421875 2.421875 1.539062 2.125 1.71875 1.84375 C 1.96875 1.488281 2.234375 1.140625 2.515625 0.796875 C 2.523438 0.765625 2.550781 0.726562 2.59375 0.6875 C 3.570312 -0.53125 3.628906 -1.78125 2.765625 -3.0625 C 2.554688 -3.34375 2.320312 -3.613281 2.0625 -3.875 C 1.988281 -3.96875 1.90625 -4.0625 1.8125 -4.15625 C 1.65625 -4.34375 1.488281 -4.523438 1.3125 -4.703125 C 1 -5.035156 0.691406 -5.390625 0.390625 -5.765625 C -0.453125 -6.953125 -0.394531 -8.085938 0.5625 -9.171875 C 1.394531 -10.148438 2.425781 -10.828125 3.65625 -11.203125 C 4.425781 -11.429688 5.171875 -11.363281 5.890625 -11 C 6.585938 -10.625 6.910156 -10.046875 6.859375 -9.265625 C 6.773438 -8.734375 6.507812 -8.421875 6.0625 -8.328125 C 5.476562 -8.210938 5.0625 -8.390625 4.8125 -8.859375 C 4.738281 -9.046875 4.6875 -9.207031 4.65625 -9.34375 C 4.613281 -9.488281 4.5625 -9.597656 4.5 -9.671875 C 4.445312 -9.753906 4.351562 -9.78125 4.21875 -9.75 C 4.09375 -9.71875 3.890625 -9.617188 3.609375 -9.453125 C 3.171875 -9.191406 2.796875 -8.851562 2.484375 -8.4375 C 1.972656 -7.820312 1.941406 -7.164062 2.390625 -6.46875 C 2.546875 -6.25 2.71875 -6.046875 2.90625 -5.859375 C 3.113281 -5.628906 3.3125 -5.398438 3.5 -5.171875 C 3.875 -4.796875 4.226562 -4.410156 4.5625 -4.015625 C 4.90625 -3.628906 5.195312 -3.207031 5.4375 -2.75 C 5.625 -2.789062 5.953125 -2.96875 6.421875 -3.28125 C 6.898438 -3.601562 7.410156 -3.972656 7.953125 -4.390625 C 8.503906 -4.816406 9.007812 -5.203125 9.46875 -5.546875 C 9.84375 -5.847656 10.109375 -6.050781 10.265625 -6.15625 C 10.390625 -6.25 10.546875 -6.316406 10.734375 -6.359375 C 10.921875 -6.410156 11.109375 -6.429688 11.296875 -6.421875 Z M 11.296875 -6.421875 "/></g></g></g><g fill="#f41b9d" fill-opacity="1"><g transform="translate(251.777289, 227.491859)"><g><path d="M 10.140625 -6.328125 C 10.328125 -6.484375 10.46875 -6.535156 10.5625 -6.484375 C 10.65625 -6.441406 10.722656 -6.347656 10.765625 -6.203125 C 10.804688 -6.066406 10.828125 -5.929688 10.828125 -5.796875 C 10.804688 -5.535156 10.753906 -5.285156 10.671875 -5.046875 C 10.585938 -4.816406 10.523438 -4.660156 10.484375 -4.578125 C 10.460938 -4.566406 10.453125 -4.5625 10.453125 -4.5625 C 10.191406 -3.90625 9.785156 -3.253906 9.234375 -2.609375 C 8.679688 -1.972656 8.03125 -1.457031 7.28125 -1.0625 C 6.53125 -0.664062 5.726562 -0.492188 4.875 -0.546875 C 3.6875 -0.679688 2.738281 -1.140625 2.03125 -1.921875 C 1.332031 -2.703125 0.804688 -3.628906 0.453125 -4.703125 C 0.0976562 -5.785156 -0.132812 -6.851562 -0.25 -7.90625 C -0.570312 -10.5 -0.664062 -13.113281 -0.53125 -15.75 C -0.507812 -16.382812 -0.488281 -17.023438 -0.46875 -17.671875 C -0.46875 -17.890625 -0.46875 -18.109375 -0.46875 -18.328125 C -0.46875 -18.742188 -0.664062 -18.953125 -1.0625 -18.953125 C -1.476562 -18.953125 -1.894531 -18.960938 -2.3125 -18.984375 C -2.757812 -18.984375 -3.21875 -18.984375 -3.6875 -18.984375 C -3.75 -18.984375 -3.8125 -18.984375 -3.875 -18.984375 C -4.207031 -18.953125 -4.515625 -19.007812 -4.796875 -19.15625 C -4.921875 -19.207031 -5.023438 -19.285156 -5.109375 -19.390625 C -5.191406 -19.492188 -5.234375 -19.625 -5.234375 -19.78125 C -5.222656 -19.925781 -5.164062 -20.039062 -5.0625 -20.125 C -4.957031 -20.207031 -4.828125 -20.25 -4.671875 -20.25 C -4.128906 -20.269531 -3.582031 -20.28125 -3.03125 -20.28125 C -2.695312 -20.28125 -2.367188 -20.28125 -2.046875 -20.28125 C -1.617188 -20.28125 -1.1875 -20.300781 -0.75 -20.34375 C -0.507812 -20.363281 -0.363281 -20.503906 -0.3125 -20.765625 C -0.269531 -21.078125 -0.238281 -21.394531 -0.21875 -21.71875 C -0.144531 -22.75 -0.0703125 -23.78125 0 -24.8125 C 0.0625 -25.53125 0.117188 -26.234375 0.171875 -26.921875 C 0.171875 -26.953125 0.171875 -26.972656 0.171875 -26.984375 C 0.171875 -27.128906 0.179688 -27.269531 0.203125 -27.40625 C 0.347656 -28.007812 0.75 -28.296875 1.40625 -28.265625 C 1.96875 -28.210938 2.28125 -27.898438 2.34375 -27.328125 C 2.363281 -26.953125 2.363281 -26.566406 2.34375 -26.171875 C 2.34375 -26.015625 2.34375 -25.859375 2.34375 -25.703125 C 2.34375 -25.703125 2.332031 -25.703125 2.3125 -25.703125 C 2.289062 -25.265625 2.269531 -24.828125 2.25 -24.390625 C 2.175781 -23.410156 2.125 -22.425781 2.09375 -21.4375 C 2.050781 -20.914062 2.09375 -20.585938 2.21875 -20.453125 C 2.351562 -20.316406 2.703125 -20.257812 3.265625 -20.28125 C 4.328125 -20.257812 5.382812 -20.25 6.4375 -20.25 C 7.1875 -20.25 7.9375 -20.242188 8.6875 -20.234375 C 8.757812 -20.234375 8.832031 -20.234375 8.90625 -20.234375 C 9.09375 -20.242188 9.269531 -20.234375 9.4375 -20.203125 C 9.613281 -20.171875 9.785156 -20.109375 9.953125 -20.015625 C 10.003906 -19.960938 10.050781 -19.910156 10.09375 -19.859375 C 10.144531 -19.804688 10.179688 -19.734375 10.203125 -19.640625 C 10.203125 -19.546875 10.171875 -19.46875 10.109375 -19.40625 C 10.054688 -19.34375 10.003906 -19.296875 9.953125 -19.265625 C 9.609375 -19.078125 9.25 -19 8.875 -19.03125 C 8.820312 -19.03125 8.757812 -19.03125 8.6875 -19.03125 C 7.5625 -19.03125 6.441406 -19.023438 5.328125 -19.015625 C 4.703125 -18.992188 4.078125 -18.984375 3.453125 -18.984375 C 3.398438 -18.984375 3.359375 -18.984375 3.328125 -18.984375 C 3.046875 -18.984375 2.753906 -18.972656 2.453125 -18.953125 C 2.148438 -18.910156 1.972656 -18.742188 1.921875 -18.453125 C 1.878906 -18.273438 1.859375 -18.109375 1.859375 -17.953125 C 1.785156 -16.296875 1.753906 -14.632812 1.765625 -12.96875 C 1.773438 -11.3125 1.882812 -9.660156 2.09375 -8.015625 C 2.257812 -6.703125 2.601562 -5.441406 3.125 -4.234375 C 3.40625 -3.578125 3.75 -3.0625 4.15625 -2.6875 C 4.5625 -2.3125 5.015625 -2.15625 5.515625 -2.21875 C 6.460938 -2.375 7.191406 -2.707031 7.703125 -3.21875 C 8.222656 -3.738281 8.660156 -4.296875 9.015625 -4.890625 C 9.359375 -5.472656 9.734375 -5.953125 10.140625 -6.328125 Z M 10.140625 -6.328125 "/></g></g></g><g fill="#f41b9d" fill-opacity="1"><g transform="translate(261.138429, 227.491859)"><g><path d="M 14.1875 -6.703125 C 14.5 -6.753906 14.691406 -6.742188 14.765625 -6.671875 C 14.847656 -6.597656 14.867188 -6.472656 14.828125 -6.296875 C 14.804688 -6.003906 14.679688 -5.742188 14.453125 -5.515625 C 14.222656 -5.285156 13.929688 -5.085938 13.578125 -4.921875 C 12.734375 -4.523438 11.90625 -4.296875 11.09375 -4.234375 C 10.289062 -4.171875 9.445312 -4.238281 8.5625 -4.4375 C 8.175781 -4.550781 7.84375 -4.554688 7.5625 -4.453125 C 7.289062 -4.347656 7.015625 -4.035156 6.734375 -3.515625 C 6.035156 -2.160156 4.925781 -1.398438 3.40625 -1.234375 C 2.257812 -1.117188 1.410156 -1.332031 0.859375 -1.875 C 0.316406 -2.414062 -0.0234375 -3.109375 -0.171875 -3.953125 C -0.335938 -4.828125 -0.296875 -5.644531 -0.046875 -6.40625 C 0.191406 -7.164062 0.59375 -7.875 1.15625 -8.53125 C 1.59375 -9 2.128906 -9.195312 2.765625 -9.125 C 3.066406 -9.125 3.300781 -9.007812 3.46875 -8.78125 C 3.5625 -8.632812 3.578125 -8.503906 3.515625 -8.390625 C 3.460938 -8.273438 3.378906 -8.171875 3.265625 -8.078125 C 2.347656 -7.117188 1.914062 -5.976562 1.96875 -4.65625 C 1.988281 -4.039062 2.171875 -3.476562 2.515625 -2.96875 C 2.804688 -2.539062 3.179688 -2.476562 3.640625 -2.78125 C 4.066406 -3.125 4.441406 -3.59375 4.765625 -4.1875 C 5.097656 -4.78125 5.285156 -5.394531 5.328125 -6.03125 C 5.378906 -6.664062 5.207031 -7.226562 4.8125 -7.71875 C 4.613281 -7.90625 4.421875 -8.035156 4.234375 -8.109375 C 4.140625 -8.160156 4.050781 -8.207031 3.96875 -8.25 C 3.894531 -8.300781 3.859375 -8.363281 3.859375 -8.4375 C 3.835938 -8.875 3.992188 -9.191406 4.328125 -9.390625 C 4.671875 -9.585938 5.085938 -9.6875 5.578125 -9.6875 C 6.066406 -9.6875 6.519531 -9.585938 6.9375 -9.390625 C 7.363281 -9.191406 7.644531 -8.90625 7.78125 -8.53125 C 7.914062 -8.039062 7.953125 -7.550781 7.890625 -7.0625 C 7.867188 -6.644531 8.039062 -6.328125 8.40625 -6.109375 C 9.207031 -5.546875 10.085938 -5.347656 11.046875 -5.515625 C 11.441406 -5.585938 11.800781 -5.6875 12.125 -5.8125 C 12.457031 -5.945312 12.773438 -6.09375 13.078125 -6.25 C 13.472656 -6.457031 13.84375 -6.609375 14.1875 -6.703125 Z M 4.9375 -13.1875 C 5.007812 -13.289062 5.101562 -13.359375 5.21875 -13.390625 C 5.34375 -13.421875 5.472656 -13.4375 5.609375 -13.4375 C 5.628906 -13.414062 5.644531 -13.40625 5.65625 -13.40625 C 5.71875 -13.40625 5.773438 -13.394531 5.828125 -13.375 C 6.109375 -13.320312 6.265625 -13.234375 6.296875 -13.109375 C 6.335938 -12.984375 6.304688 -12.847656 6.203125 -12.703125 C 6.109375 -12.566406 6.003906 -12.4375 5.890625 -12.3125 C 5.585938 -11.988281 5.296875 -11.617188 5.015625 -11.203125 C 4.773438 -10.867188 4.5625 -10.597656 4.375 -10.390625 C 4.1875 -10.179688 4.035156 -10.148438 3.921875 -10.296875 C 3.804688 -10.378906 3.742188 -10.476562 3.734375 -10.59375 C 3.722656 -10.707031 3.738281 -10.828125 3.78125 -10.953125 C 3.875 -11.304688 4.007812 -11.644531 4.1875 -11.96875 C 4.363281 -12.289062 4.554688 -12.601562 4.765625 -12.90625 C 4.816406 -13 4.875 -13.09375 4.9375 -13.1875 Z M 4.9375 -13.1875 "/></g></g></g><g fill="#f41b9d" fill-opacity="1"><g transform="translate(274.635876, 227.491859)"><g><path d="M 11.390625 -6.046875 C 11.703125 -6.367188 11.976562 -6.492188 12.21875 -6.421875 C 12.46875 -6.359375 12.617188 -6.179688 12.671875 -5.890625 C 12.734375 -5.597656 12.648438 -5.273438 12.421875 -4.921875 C 11.953125 -4.222656 11.289062 -3.472656 10.4375 -2.671875 C 9.582031 -1.878906 8.660156 -1.1875 7.671875 -0.59375 C 6.691406 0 5.757812 0.320312 4.875 0.375 C 3.09375 0.46875 2.257812 -0.382812 2.375 -2.1875 C 2.382812 -2.425781 2.429688 -2.75 2.515625 -3.15625 C 2.585938 -3.539062 2.644531 -3.914062 2.6875 -4.28125 C 2.738281 -4.65625 2.71875 -4.90625 2.625 -5.03125 C 2.507812 -5.144531 2.375 -5.203125 2.21875 -5.203125 C 2.070312 -5.203125 1.910156 -5.1875 1.734375 -5.15625 C 1.546875 -5.101562 1.375 -5.09375 1.21875 -5.125 C 0.34375 -5.21875 -0.109375 -5.664062 -0.140625 -6.46875 C -0.160156 -7.582031 0.0390625 -8.644531 0.46875 -9.65625 C 0.601562 -9.96875 0.859375 -10.175781 1.234375 -10.28125 C 1.617188 -10.382812 1.96875 -10.34375 2.28125 -10.15625 C 2.488281 -10.03125 2.582031 -9.859375 2.5625 -9.640625 C 2.53125 -9.328125 2.472656 -9.019531 2.390625 -8.71875 C 2.359375 -8.59375 2.332031 -8.460938 2.3125 -8.328125 C 2.144531 -7.535156 2.144531 -7.125 2.3125 -7.09375 C 2.476562 -7.070312 2.84375 -7.285156 3.40625 -7.734375 C 3.820312 -8.035156 4.285156 -8.160156 4.796875 -8.109375 C 5.460938 -8.046875 5.734375 -7.671875 5.609375 -6.984375 C 5.492188 -6.515625 5.378906 -6.035156 5.265625 -5.546875 C 5.003906 -4.546875 4.804688 -3.539062 4.671875 -2.53125 C 4.617188 -1.832031 4.742188 -1.425781 5.046875 -1.3125 C 5.347656 -1.195312 5.75 -1.265625 6.25 -1.515625 C 6.75 -1.773438 7.269531 -2.117188 7.8125 -2.546875 C 8.363281 -2.984375 8.851562 -3.40625 9.28125 -3.8125 C 9.707031 -4.226562 9.992188 -4.535156 10.140625 -4.734375 C 10.222656 -4.828125 10.34375 -4.957031 10.5 -5.125 C 10.65625 -5.289062 10.816406 -5.457031 10.984375 -5.625 C 11.171875 -5.8125 11.304688 -5.953125 11.390625 -6.046875 Z M 11.390625 -6.046875 "/></g></g></g><g fill="#f41b9d" fill-opacity="1"><g transform="translate(285.687389, 227.491859)"><g><path d="M 9.328125 -6.421875 C 9.429688 -6.359375 9.476562 -6.253906 9.46875 -6.109375 C 9.46875 -5.972656 9.425781 -5.847656 9.34375 -5.734375 C 8.769531 -4.867188 8.148438 -4.101562 7.484375 -3.4375 C 6.816406 -2.78125 6.082031 -2.285156 5.28125 -1.953125 C 4.488281 -1.617188 3.570312 -1.523438 2.53125 -1.671875 C 1.84375 -1.785156 1.320312 -2.019531 0.96875 -2.375 C 0.625 -2.738281 0.363281 -3.25 0.1875 -3.90625 C -0.09375 -4.9375 -0.15625 -6 0 -7.09375 C 0.125 -7.726562 0.515625 -8.054688 1.171875 -8.078125 C 1.765625 -8.078125 2.085938 -7.8125 2.140625 -7.28125 C 2.160156 -6.851562 2.160156 -6.425781 2.140625 -6 C 2.140625 -5.9375 2.140625 -5.878906 2.140625 -5.828125 C 2.109375 -4.660156 2.296875 -3.859375 2.703125 -3.421875 C 3.117188 -2.992188 3.660156 -2.878906 4.328125 -3.078125 C 4.992188 -3.285156 5.703125 -3.757812 6.453125 -4.5 C 6.546875 -4.59375 6.660156 -4.71875 6.796875 -4.875 C 6.941406 -5.039062 7.101562 -5.207031 7.28125 -5.375 C 7.519531 -5.613281 7.710938 -5.820312 7.859375 -6 C 8.328125 -6.46875 8.816406 -6.609375 9.328125 -6.421875 Z M 1.015625 -9.96875 C 0.492188 -10 0.191406 -10.28125 0.109375 -10.8125 C 0.0546875 -11.21875 0.125 -11.609375 0.3125 -11.984375 C 0.476562 -12.316406 0.753906 -12.539062 1.140625 -12.65625 C 1.523438 -12.769531 1.890625 -12.734375 2.234375 -12.546875 C 2.359375 -12.484375 2.445312 -12.390625 2.5 -12.265625 C 2.5625 -12.140625 2.582031 -12.039062 2.5625 -11.96875 C 2.539062 -10.613281 2.023438 -9.945312 1.015625 -9.96875 Z M 1.015625 -9.96875 "/></g></g></g><g fill="#f41b9d" fill-opacity="1"><g transform="translate(293.53744, 227.491859)"><g><path d="M 11.734375 -6.4375 C 11.828125 -6.425781 11.890625 -6.398438 11.921875 -6.359375 C 11.960938 -6.316406 12.003906 -6.242188 12.046875 -6.140625 C 12.078125 -6.023438 12.035156 -5.890625 11.921875 -5.734375 C 11.816406 -5.585938 11.71875 -5.46875 11.625 -5.375 C 10.914062 -4.707031 10.09375 -4.3125 9.15625 -4.1875 C 8.625 -4.113281 8.085938 -4.09375 7.546875 -4.125 C 7.003906 -4.164062 6.472656 -4.296875 5.953125 -4.515625 C 5.578125 -4.703125 5.226562 -4.648438 4.90625 -4.359375 C 4.226562 -3.742188 3.523438 -3.15625 2.796875 -2.59375 C 2.421875 -2.3125 2.023438 -2.070312 1.609375 -1.875 C 1.191406 -1.6875 0.738281 -1.582031 0.25 -1.5625 C -1.175781 -1.582031 -1.738281 -2.28125 -1.4375 -3.65625 C -1.414062 -3.707031 -1.394531 -3.753906 -1.375 -3.796875 C -0.957031 -4.898438 -0.414062 -5.898438 0.25 -6.796875 C 0.925781 -7.691406 1.78125 -8.4375 2.8125 -9.03125 C 3.5 -9.4375 4.234375 -9.585938 5.015625 -9.484375 C 5.222656 -9.441406 5.421875 -9.367188 5.609375 -9.265625 C 5.835938 -9.148438 5.929688 -8.96875 5.890625 -8.71875 C 5.867188 -8.644531 5.832031 -8.578125 5.78125 -8.515625 C 5.726562 -8.460938 5.671875 -8.410156 5.609375 -8.359375 C 5.578125 -8.316406 5.53125 -8.285156 5.46875 -8.265625 C 5.414062 -8.253906 5.359375 -8.25 5.296875 -8.25 C 4.734375 -8.226562 4.25 -8.0625 3.84375 -7.75 C 3.4375 -7.4375 3.066406 -7.085938 2.734375 -6.703125 C 2.359375 -6.285156 2.007812 -5.820312 1.6875 -5.3125 C 1.375 -4.8125 1.113281 -4.210938 0.90625 -3.515625 C 1.65625 -3.941406 2.242188 -4.367188 2.671875 -4.796875 C 2.765625 -4.890625 2.859375 -4.976562 2.953125 -5.0625 C 3.035156 -5.132812 3.113281 -5.203125 3.1875 -5.265625 C 3.5625 -5.617188 3.957031 -5.925781 4.375 -6.1875 C 4.84375 -6.445312 5.304688 -6.578125 5.765625 -6.578125 C 6.222656 -6.578125 6.671875 -6.390625 7.109375 -6.015625 C 7.703125 -5.484375 8.28125 -5.273438 8.84375 -5.390625 C 9.414062 -5.515625 9.941406 -5.71875 10.421875 -6 C 10.921875 -6.289062 11.359375 -6.4375 11.734375 -6.4375 Z M 11.734375 -6.4375 "/></g></g></g><g fill="#f41b9d" fill-opacity="1"><g transform="translate(304.384058, 227.491859)"><g><path d="M 11.296875 -6.421875 C 11.617188 -6.359375 11.796875 -6.179688 11.828125 -5.890625 C 11.867188 -5.597656 11.722656 -5.304688 11.390625 -5.015625 C 11.066406 -4.722656 10.753906 -4.457031 10.453125 -4.21875 C 9.703125 -3.601562 8.894531 -2.941406 8.03125 -2.234375 C 7.351562 -1.691406 6.734375 -1.09375 6.171875 -0.4375 C 5.753906 0.0078125 5.441406 0.515625 5.234375 1.078125 C 5.015625 1.804688 4.640625 2.460938 4.109375 3.046875 C 3.804688 3.390625 3.460938 3.597656 3.078125 3.671875 C 2.703125 3.753906 2.304688 3.734375 1.890625 3.609375 C 1.679688 3.554688 1.523438 3.445312 1.421875 3.28125 C 1.316406 3.125 1.296875 2.941406 1.359375 2.734375 C 1.421875 2.421875 1.539062 2.125 1.71875 1.84375 C 1.96875 1.488281 2.234375 1.140625 2.515625 0.796875 C 2.523438 0.765625 2.550781 0.726562 2.59375 0.6875 C 3.570312 -0.53125 3.628906 -1.78125 2.765625 -3.0625 C 2.554688 -3.34375 2.320312 -3.613281 2.0625 -3.875 C 1.988281 -3.96875 1.90625 -4.0625 1.8125 -4.15625 C 1.65625 -4.34375 1.488281 -4.523438 1.3125 -4.703125 C 1 -5.035156 0.691406 -5.390625 0.390625 -5.765625 C -0.453125 -6.953125 -0.394531 -8.085938 0.5625 -9.171875 C 1.394531 -10.148438 2.425781 -10.828125 3.65625 -11.203125 C 4.425781 -11.429688 5.171875 -11.363281 5.890625 -11 C 6.585938 -10.625 6.910156 -10.046875 6.859375 -9.265625 C 6.773438 -8.734375 6.507812 -8.421875 6.0625 -8.328125 C 5.476562 -8.210938 5.0625 -8.390625 4.8125 -8.859375 C 4.738281 -9.046875 4.6875 -9.207031 4.65625 -9.34375 C 4.613281 -9.488281 4.5625 -9.597656 4.5 -9.671875 C 4.445312 -9.753906 4.351562 -9.78125 4.21875 -9.75 C 4.09375 -9.71875 3.890625 -9.617188 3.609375 -9.453125 C 3.171875 -9.191406 2.796875 -8.851562 2.484375 -8.4375 C 1.972656 -7.820312 1.941406 -7.164062 2.390625 -6.46875 C 2.546875 -6.25 2.71875 -6.046875 2.90625 -5.859375 C 3.113281 -5.628906 3.3125 -5.398438 3.5 -5.171875 C 3.875 -4.796875 4.226562 -4.410156 4.5625 -4.015625 C 4.90625 -3.628906 5.195312 -3.207031 5.4375 -2.75 C 5.625 -2.789062 5.953125 -2.96875 6.421875 -3.28125 C 6.898438 -3.601562 7.410156 -3.972656 7.953125 -4.390625 C 8.503906 -4.816406 9.007812 -5.203125 9.46875 -5.546875 C 9.84375 -5.847656 10.109375 -6.050781 10.265625 -6.15625 C 10.390625 -6.25 10.546875 -6.316406 10.734375 -6.359375 C 10.921875 -6.410156 11.109375 -6.429688 11.296875 -6.421875 Z M 11.296875 -6.421875 "/></g></g></g><g fill="#fecd2f" fill-opacity="1"><g transform="translate(120.679729, 257.620339)"><g><path d="M 1.578125 0 L 1.578125 -17.484375 L 3.578125 -17.484375 L 3.578125 -1.59375 L 7.453125 -1.59375 L 7.453125 0 Z M 1.578125 0 "/></g></g></g><g fill="#fecd2f" fill-opacity="1"><g transform="translate(128.496158, 257.620339)"><g><path d="M 1.578125 0 L 1.578125 -13.484375 L 3.5 -13.484375 L 3.5 0 Z M 1.5 -16.140625 L 1.5 -18.484375 L 3.578125 -18.484375 L 3.578125 -16.140625 Z M 1.5 -16.140625 "/></g></g></g><g fill="#fecd2f" fill-opacity="1"><g transform="translate(133.565604, 257.620339)"><g><path d="M 2.34375 -13.484375 L 4.265625 -3.015625 L 6.21875 -13.484375 L 8.140625 -13.484375 L 5.328125 0 L 3.25 0 L 0.40625 -13.484375 Z M 2.34375 -13.484375 "/></g></g></g><g fill="#fecd2f" fill-opacity="1"><g transform="translate(142.106238, 257.620339)"><g><path d="M 5.75 -13.859375 L 6.25 -13.84375 L 6.09375 -11.71875 C 5.863281 -11.832031 5.640625 -11.890625 5.421875 -11.890625 C 4.148438 -11.890625 3.507812 -10.570312 3.5 -7.9375 L 3.5 0 L 1.578125 0 L 1.578125 -13.484375 L 2.75 -13.484375 L 3.296875 -11.1875 C 3.628906 -12.96875 4.445312 -13.859375 5.75 -13.859375 Z M 5.75 -13.859375 "/></g></g></g><g fill="#fecd2f" fill-opacity="1"><g transform="translate(148.549169, 257.620339)"><g><path d="M 1.125 -4.171875 C 1.125 -5.753906 1.351562 -6.832031 1.8125 -7.40625 C 2.28125 -7.976562 2.945312 -8.265625 3.8125 -8.265625 C 4.6875 -8.265625 5.375 -7.929688 5.875 -7.265625 L 5.875 -9.890625 C 5.875 -11.492188 5.375 -12.296875 4.375 -12.296875 C 3.519531 -12.296875 2.710938 -11.800781 1.953125 -10.8125 L 1.28125 -12.21875 C 1.65625 -12.6875 2.140625 -13.078125 2.734375 -13.390625 C 3.328125 -13.703125 3.929688 -13.859375 4.546875 -13.859375 C 6.710938 -13.859375 7.796875 -12.394531 7.796875 -9.46875 L 7.796875 0 L 6.625 0 L 6.21875 -1.625 C 6.039062 -0.957031 5.738281 -0.457031 5.3125 -0.125 C 4.882812 0.207031 4.40625 0.375 3.875 0.375 C 2.96875 0.375 2.28125 0.0859375 1.8125 -0.484375 C 1.351562 -1.054688 1.125 -2.132812 1.125 -3.71875 Z M 4.265625 -1.203125 C 4.753906 -1.203125 5.132812 -1.375 5.40625 -1.71875 C 5.6875 -2.070312 5.84375 -2.707031 5.875 -3.625 L 5.875 -4.296875 C 5.84375 -5.273438 5.6875 -5.957031 5.40625 -6.34375 C 5.132812 -6.726562 4.753906 -6.921875 4.265625 -6.921875 C 3.429688 -6.921875 3.015625 -6.128906 3.015625 -4.546875 L 3.015625 -3.578125 C 3.015625 -1.992188 3.429688 -1.203125 4.265625 -1.203125 Z M 4.265625 -1.203125 "/></g></g></g><g fill="#fecd2f" fill-opacity="1"><g transform="translate(157.739095, 257.620339)"><g><path d="M 5.75 -13.859375 L 6.25 -13.84375 L 6.09375 -11.71875 C 5.863281 -11.832031 5.640625 -11.890625 5.421875 -11.890625 C 4.148438 -11.890625 3.507812 -10.570312 3.5 -7.9375 L 3.5 0 L 1.578125 0 L 1.578125 -13.484375 L 2.75 -13.484375 L 3.296875 -11.1875 C 3.628906 -12.96875 4.445312 -13.859375 5.75 -13.859375 Z M 5.75 -13.859375 "/></g></g></g><g fill="#fecd2f" fill-opacity="1"><g transform="translate(164.182027, 257.620339)"><g><path d="M 1.578125 0 L 1.578125 -13.484375 L 3.5 -13.484375 L 3.5 0 Z M 1.5 -16.140625 L 1.5 -18.484375 L 3.578125 -18.484375 L 3.578125 -16.140625 Z M 1.5 -16.140625 "/></g></g></g><g fill="#fecd2f" fill-opacity="1"><g transform="translate(169.251473, 257.620339)"><g><path d="M 1.125 -4.171875 C 1.125 -5.753906 1.351562 -6.832031 1.8125 -7.40625 C 2.28125 -7.976562 2.945312 -8.265625 3.8125 -8.265625 C 4.6875 -8.265625 5.375 -7.929688 5.875 -7.265625 L 5.875 -9.890625 C 5.875 -11.492188 5.375 -12.296875 4.375 -12.296875 C 3.519531 -12.296875 2.710938 -11.800781 1.953125 -10.8125 L 1.28125 -12.21875 C 1.65625 -12.6875 2.140625 -13.078125 2.734375 -13.390625 C 3.328125 -13.703125 3.929688 -13.859375 4.546875 -13.859375 C 6.710938 -13.859375 7.796875 -12.394531 7.796875 -9.46875 L 7.796875 0 L 6.625 0 L 6.21875 -1.625 C 6.039062 -0.957031 5.738281 -0.457031 5.3125 -0.125 C 4.882812 0.207031 4.40625 0.375 3.875 0.375 C 2.96875 0.375 2.28125 0.0859375 1.8125 -0.484375 C 1.351562 -1.054688 1.125 -2.132812 1.125 -3.71875 Z M 4.265625 -1.203125 C 4.753906 -1.203125 5.132812 -1.375 5.40625 -1.71875 C 5.6875 -2.070312 5.84375 -2.707031 5.875 -3.625 L 5.875 -4.296875 C 5.84375 -5.273438 5.6875 -5.957031 5.40625 -6.34375 C 5.132812 -6.726562 4.753906 -6.921875 4.265625 -6.921875 C 3.429688 -6.921875 3.015625 -6.128906 3.015625 -4.546875 L 3.015625 -3.578125 C 3.015625 -1.992188 3.429688 -1.203125 4.265625 -1.203125 Z M 4.265625 -1.203125 "/></g></g></g><g fill="#fecd2f" fill-opacity="1"><g transform="translate(178.441398, 257.620339)"><g/></g></g><g fill="#fecd2f" fill-opacity="1"><g transform="translate(182.037452, 257.620339)"><g><path d="M 7.9375 -3.921875 C 7.8125 -2.304688 7.457031 -1.1875 6.875 -0.5625 C 6.289062 0.0625 5.492188 0.375 4.484375 0.375 C 3.472656 0.375 2.675781 0.0195312 2.09375 -0.6875 C 1.507812 -1.394531 1.21875 -2.625 1.21875 -4.375 L 1.21875 -8.625 C 1.21875 -10.601562 1.507812 -11.96875 2.09375 -12.71875 C 2.675781 -13.476562 3.472656 -13.859375 4.484375 -13.859375 C 5.492188 -13.859375 6.28125 -13.582031 6.84375 -13.03125 C 7.40625 -12.488281 7.75 -11.5 7.875 -10.0625 L 6.125 -9.59375 C 6.050781 -11.40625 5.539062 -12.3125 4.59375 -12.3125 C 4.113281 -12.3125 3.75 -12.09375 3.5 -11.65625 C 3.25 -11.226562 3.125 -10.332031 3.125 -8.96875 L 3.125 -4.203125 C 3.125 -3.035156 3.25 -2.242188 3.5 -1.828125 C 3.757812 -1.410156 4.128906 -1.203125 4.609375 -1.203125 C 5.097656 -1.203125 5.472656 -1.40625 5.734375 -1.8125 C 6.003906 -2.21875 6.203125 -3.003906 6.328125 -4.171875 Z M 7.9375 -3.921875 "/></g></g></g><g fill="#fecd2f" fill-opacity="1"><g transform="translate(190.677981, 257.620339)"><g><path d="M 8.25 -8.625 L 8.25 -4.875 C 8.25 -2.894531 7.941406 -1.523438 7.328125 -0.765625 C 6.722656 -0.00390625 5.859375 0.375 4.734375 0.375 C 3.609375 0.375 2.738281 -0.00390625 2.125 -0.765625 C 1.519531 -1.523438 1.21875 -2.894531 1.21875 -4.875 L 1.21875 -8.625 C 1.21875 -10.601562 1.519531 -11.96875 2.125 -12.71875 C 2.738281 -13.476562 3.609375 -13.859375 4.734375 -13.859375 C 5.859375 -13.859375 6.722656 -13.476562 7.328125 -12.71875 C 7.941406 -11.96875 8.25 -10.601562 8.25 -8.625 Z M 6.328125 -4.515625 L 6.328125 -8.96875 C 6.328125 -11.195312 5.800781 -12.3125 4.75 -12.3125 C 3.664062 -12.3125 3.125 -11.195312 3.125 -8.96875 L 3.125 -4.515625 C 3.125 -2.285156 3.664062 -1.171875 4.75 -1.171875 C 5.800781 -1.171875 6.328125 -2.285156 6.328125 -4.515625 Z M 6.328125 -4.515625 "/></g></g></g><g fill="#fecd2f" fill-opacity="1"><g transform="translate(200.142599, 257.620339)"><g><path d="M 3.5 0 L 1.578125 0 L 1.578125 -13.484375 L 2.75 -13.484375 L 3.25 -11.375 C 3.5625 -13.03125 4.382812 -13.859375 5.71875 -13.859375 C 6.988281 -13.859375 7.789062 -13.046875 8.125 -11.421875 C 8.46875 -13.046875 9.289062 -13.859375 10.59375 -13.859375 C 11.445312 -13.859375 12.097656 -13.472656 12.546875 -12.703125 C 13.003906 -11.941406 13.234375 -10.546875 13.234375 -8.515625 L 13.234375 0 L 11.3125 0 L 11.3125 -9.1875 C 11.3125 -11.269531 10.921875 -12.3125 10.140625 -12.3125 C 8.992188 -12.3125 8.40625 -10.53125 8.375 -6.96875 L 8.375 0 L 6.453125 0 L 6.453125 -9.1875 C 6.453125 -11.269531 6.066406 -12.3125 5.296875 -12.3125 C 4.128906 -12.3125 3.53125 -10.53125 3.5 -6.96875 Z M 3.5 0 "/></g></g></g><g fill="#fecd2f" fill-opacity="1"><g transform="translate(214.80153, 257.620339)"><g><path d="M 6.265625 -13.484375 L 8.171875 -13.484375 L 8.171875 0 L 7 0 L 6.59375 -1.65625 C 6.207031 -0.300781 5.398438 0.375 4.171875 0.375 C 3.253906 0.375 2.5625 0.09375 2.09375 -0.46875 C 1.632812 -1.039062 1.40625 -2.125 1.40625 -3.71875 L 1.40625 -13.484375 L 3.296875 -13.484375 L 3.296875 -3.578125 C 3.296875 -2.660156 3.40625 -2.035156 3.625 -1.703125 C 3.851562 -1.367188 4.191406 -1.203125 4.640625 -1.203125 C 5.660156 -1.203125 6.203125 -2.007812 6.265625 -3.625 Z M 6.265625 -13.484375 "/></g></g></g><g fill="#fecd2f" fill-opacity="1"><g transform="translate(224.565823, 257.620339)"><g><path d="M 3.5 0 L 1.578125 0 L 1.578125 -13.484375 L 2.75 -13.484375 L 3.25 -11.34375 C 3.59375 -13.019531 4.46875 -13.859375 5.875 -13.859375 C 6.738281 -13.859375 7.398438 -13.472656 7.859375 -12.703125 C 8.316406 -11.941406 8.546875 -10.546875 8.546875 -8.515625 L 8.546875 0 L 6.625 0 L 6.625 -9.1875 C 6.625 -11.269531 6.210938 -12.3125 5.390625 -12.3125 C 4.160156 -12.3125 3.53125 -10.53125 3.5 -6.96875 Z M 3.5 0 "/></g></g></g><g fill="#fecd2f" fill-opacity="1"><g transform="translate(234.504924, 257.620339)"><g><path d="M 1.578125 0 L 1.578125 -13.484375 L 3.5 -13.484375 L 3.5 0 Z M 1.5 -16.140625 L 1.5 -18.484375 L 3.578125 -18.484375 L 3.578125 -16.140625 Z M 1.5 -16.140625 "/></g></g></g><g fill="#fecd2f" fill-opacity="1"><g transform="translate(239.574371, 257.620339)"><g><path d="M 0.5 -11.9375 L 0.5 -13.484375 L 1.828125 -13.484375 L 2.5 -16.8125 L 3.640625 -16.8125 L 3.640625 -13.484375 L 5.421875 -13.484375 L 5.421875 -11.9375 L 3.640625 -11.9375 L 3.640625 -2.546875 C 3.640625 -1.660156 3.882812 -1.21875 4.375 -1.21875 C 4.6875 -1.21875 5.019531 -1.351562 5.375 -1.625 L 5.75 -0.15625 C 5.175781 0.195312 4.59375 0.375 4 0.375 C 2.5 0.375 1.75 -0.734375 1.75 -2.953125 L 1.75 -11.9375 Z M 0.5 -11.9375 "/></g></g></g><g fill="#fecd2f" fill-opacity="1"><g transform="translate(245.54283, 257.620339)"><g><path d="M 1.125 -4.171875 C 1.125 -5.753906 1.351562 -6.832031 1.8125 -7.40625 C 2.28125 -7.976562 2.945312 -8.265625 3.8125 -8.265625 C 4.6875 -8.265625 5.375 -7.929688 5.875 -7.265625 L 5.875 -9.890625 C 5.875 -11.492188 5.375 -12.296875 4.375 -12.296875 C 3.519531 -12.296875 2.710938 -11.800781 1.953125 -10.8125 L 1.28125 -12.21875 C 1.65625 -12.6875 2.140625 -13.078125 2.734375 -13.390625 C 3.328125 -13.703125 3.929688 -13.859375 4.546875 -13.859375 C 6.710938 -13.859375 7.796875 -12.394531 7.796875 -9.46875 L 7.796875 0 L 6.625 0 L 6.21875 -1.625 C 6.039062 -0.957031 5.738281 -0.457031 5.3125 -0.125 C 4.882812 0.207031 4.40625 0.375 3.875 0.375 C 2.96875 0.375 2.28125 0.0859375 1.8125 -0.484375 C 1.351562 -1.054688 1.125 -2.132812 1.125 -3.71875 Z M 4.265625 -1.203125 C 4.753906 -1.203125 5.132812 -1.375 5.40625 -1.71875 C 5.6875 -2.070312 5.84375 -2.707031 5.875 -3.625 L 5.875 -4.296875 C 5.84375 -5.273438 5.6875 -5.957031 5.40625 -6.34375 C 5.132812 -6.726562 4.753906 -6.921875 4.265625 -6.921875 C 3.429688 -6.921875 3.015625 -6.128906 3.015625 -4.546875 L 3.015625 -3.578125 C 3.015625 -1.992188 3.429688 -1.203125 4.265625 -1.203125 Z M 3.09375 -15.9375 L 6.34375 -18.890625 L 7.21875 -17.21875 L 3.640625 -15.046875 Z M 3.09375 -15.9375 "/></g></g></g><g fill="#fecd2f" fill-opacity="1"><g transform="translate(254.732756, 257.620339)"><g><path d="M 5.75 -13.859375 L 6.25 -13.84375 L 6.09375 -11.71875 C 5.863281 -11.832031 5.640625 -11.890625 5.421875 -11.890625 C 4.148438 -11.890625 3.507812 -10.570312 3.5 -7.9375 L 3.5 0 L 1.578125 0 L 1.578125 -13.484375 L 2.75 -13.484375 L 3.296875 -11.1875 C 3.628906 -12.96875 4.445312 -13.859375 5.75 -13.859375 Z M 5.75 -13.859375 "/></g></g></g><g fill="#fecd2f" fill-opacity="1"><g transform="translate(261.175688, 257.620339)"><g><path d="M 1.578125 0 L 1.578125 -13.484375 L 3.5 -13.484375 L 3.5 0 Z M 1.5 -16.140625 L 1.5 -18.484375 L 3.578125 -18.484375 L 3.578125 -16.140625 Z M 1.5 -16.140625 "/></g></g></g><g fill="#fecd2f" fill-opacity="1"><g transform="translate(266.245134, 257.620339)"><g><path d="M 1.125 -4.171875 C 1.125 -5.753906 1.351562 -6.832031 1.8125 -7.40625 C 2.28125 -7.976562 2.945312 -8.265625 3.8125 -8.265625 C 4.6875 -8.265625 5.375 -7.929688 5.875 -7.265625 L 5.875 -9.890625 C 5.875 -11.492188 5.375 -12.296875 4.375 -12.296875 C 3.519531 -12.296875 2.710938 -11.800781 1.953125 -10.8125 L 1.28125 -12.21875 C 1.65625 -12.6875 2.140625 -13.078125 2.734375 -13.390625 C 3.328125 -13.703125 3.929688 -13.859375 4.546875 -13.859375 C 6.710938 -13.859375 7.796875 -12.394531 7.796875 -9.46875 L 7.796875 0 L 6.625 0 L 6.21875 -1.625 C 6.039062 -0.957031 5.738281 -0.457031 5.3125 -0.125 C 4.882812 0.207031 4.40625 0.375 3.875 0.375 C 2.96875 0.375 2.28125 0.0859375 1.8125 -0.484375 C 1.351562 -1.054688 1.125 -2.132812 1.125 -3.71875 Z M 4.265625 -1.203125 C 4.753906 -1.203125 5.132812 -1.375 5.40625 -1.71875 C 5.6875 -2.070312 5.84375 -2.707031 5.875 -3.625 L 5.875 -4.296875 C 5.84375 -5.273438 5.6875 -5.957031 5.40625 -6.34375 C 5.132812 -6.726562 4.753906 -6.921875 4.265625 -6.921875 C 3.429688 -6.921875 3.015625 -6.128906 3.015625 -4.546875 L 3.015625 -3.578125 C 3.015625 -1.992188 3.429688 -1.203125 4.265625 -1.203125 Z M 4.265625 -1.203125 "/></g></g></g></svg>